<?xml version="1.0" standalone="no"?>
<!DOCTYPE svg PUBLIC "-//W3C//DTD SVG 20010904//EN"
 "http://www.w3.org/TR/2001/REC-SVG-20010904/DTD/svg10.dtd">
<svg version="1.0" xmlns="http://www.w3.org/2000/svg"
 width="208.000000pt" height="208.000000pt" viewBox="0 0 208.000000 208.000000"
 preserveAspectRatio="xMidYMid meet">
<metadata>
Created by potrace 1.14, written by Peter Selinger 2001-2017
</metadata>
<g transform="translate(0.000000,208.000000) scale(0.100000,-0.100000)"
fill="#000000" stroke="none">
<path d="M40 1040 l0 -1040 749 0 750 0 83 87 c46 48 129 134 184 192 56 58
131 138 168 176 l66 70 0 778 0 777 -1000 0 -1000 0 0 -1040z m841 153 c0 -7
1 -148 1 -313 0 -165 -1 -309 -1 -320 -1 -19 -8 -20 -116 -20 l-115 0 0 333 0
333 115 0 c87 0 115 -3 116 -13z m322 -213 c-125 -124 -230 -225 -233 -224 -3
1 -5 71 -4 155 l1 152 74 71 74 71 158 1 158 1 -228 -227z m118 -332 c54 -53
99 -99 99 -102 0 -3 -78 -6 -172 -6 l-173 0 -52 50 c-29 28 -53 52 -53 54 0 3
39 43 88 90 l87 85 38 -37 c22 -20 84 -81 138 -134z"/>
</g>
</svg>
